ffmpeg started on 2025-05-02 at 14:03:35
Report written to "D:\Convert\FFMetrics\reports\psnr_report-6.txt"
Log level: 32
Command line:
ffmpeg -hide_banner -nostdin -i "G:\\\xc0\xed\xe8\xec\xe5\\\xce\xed\xe3\xee\xe8\xed\xe3\xe8\\!_35_\xcb\xe5\xf2\xee_2024\\JamClub\\\xcf\xee\xf7\xe5\xec\xf3 \xe2\xf1\xe5 \xe7\xe0\xe1\xfb\xeb\xe8 \xec\xee\xe9 \xec\xe8\xf0\\JamClub_Naze_Boku_no_Sekai_o_Dare_mo_Oboeteinai_no_ka_01_1080p_HEVC.mkv" -i "G:\\\xc0\xed\xe8\xec\xe5\\\xce\xed\xe3\xee\xe8\xed\xe3\xe8\\!_35_\xcb\xe5\xf2\xee_2024\\JamClub\\\xcf\xee\xf7\xe5\xec\xf3 \xe2\xf1\xe5 \xe7\xe0\xe1\xfb\xeb\xe8 \xec\xee\xe9 \xec\xe8\xf0\\JamClub_Naze_Boku_no_Sekai_o_Dare_mo_Oboeteinai_no_ka_01_1080p.mp4" -lavfi "[0:v]settb=AVTB,setpts=PTS-STARTPTS,format=pix_fmts=yuv420p10,fps=24000/1001,scale=1920:1080:flags=bicubic[main];[1:v]settb=AVTB,setpts=PTS-STARTPTS,format=pix_fmts=yuv420p,fps=24000/1001,scale=1920:1080:flags=bicubic[ref];[main][ref]psnr=eof_action=endall:stats_file='D\\:/Convert/FFMetrics/logs/psnr_logfile-6.txt'" -f null -
Input #0, matroska,webm, from 'G:\Аниме\Онгоинги\!_35_Лето_2024\JamClub\Почему все забыли мой мир\JamClub_Naze_Boku_no_Sekai_o_Dare_mo_Oboeteinai_no_ka_01_1080p_HEVC.mkv':
  Metadata:
    COMPATIBLE_BRANDS: isomiso2avc1mp41
    MAJOR_BRAND     : isom
    MINOR_VERSION   : 512
    ENCODER         : Lavf61.7.100
  Duration: 00:24:02.28, start: -0.001000, bitrate: 1430 kb/s
  Stream #0:0: Video: hevc (Main 10), yuv420p10le(tv, bt709, progressive), 1920x1080 [SAR 1:1 DAR 16:9], 23.98 fps, 23.98 tbr, 1k tbn (default)
      Metadata:
        HANDLER_NAME    : VideoHandler
        VENDOR_ID       : [0][0][0][0]
        ENCODER         : Lavc61.19.100 libx265
        BPS             : 1232757
        DURATION        : 00:24:02.148708333
        NUMBER_OF_FRAMES: 34577
        NUMBER_OF_BYTES : 222227274
        _STATISTICS_WRITING_APP: mkvpropedit v66.0.0 ('Josie') 64-bit
        _STATISTICS_WRITING_DATE_UTC: 2025-04-30 10:50:45
        _STATISTICS_TAGS: BPS DURATION NUMBER_OF_FRAMES NUMBER_OF_BYTES
  Stream #0:1(eng): Audio: aac (LC), 48000 Hz, stereo, fltp (default)
      Metadata:
        HANDLER_NAME    : SoundHandler
        VENDOR_ID       : [0][0][0][0]
        ENCODER         : Lavc61.19.100 aac
        BPS             : 193496
        DURATION        : 00:24:02.243000000
        NUMBER_OF_FRAMES: 67606
        NUMBER_OF_BYTES : 34883561
        _STATISTICS_WRITING_APP: mkvpropedit v66.0.0 ('Josie') 64-bit
        _STATISTICS_WRITING_DATE_UTC: 2025-04-30 10:50:45
        _STATISTICS_TAGS: BPS DURATION NUMBER_OF_FRAMES NUMBER_OF_BYTES
Input #1, mov,mp4,m4a,3gp,3g2,mj2, from 'G:\Аниме\Онгоинги\!_35_Лето_2024\JamClub\Почему все забыли мой мир\JamClub_Naze_Boku_no_Sekai_o_Dare_mo_Oboeteinai_no_ka_01_1080p.mp4':
  Metadata:
    major_brand     : isom
    minor_version   : 512
    compatible_brands: isomiso2avc1mp41
    encoder         : Lavf60.16.100
  Duration: 00:24:02.26, start: 0.000000, bitrate: 4102 kb/s
  Stream #1:0[0x1](und): Video: h264 (High) (avc1 / 0x31637661), yuv420p(progressive), 1920x1080 [SAR 1:1 DAR 16:9], 3904 kb/s, 23.98 fps, 23.98 tbr, 90k tbn (default)
      Metadata:
        handler_name    : VideoHandler
        vendor_id       : [0][0][0][0]
  Stream #1:1[0x2](eng): Audio: aac (LC) (mp4a / 0x6134706D), 48000 Hz, stereo, fltp, 191 kb/s (default)
      Metadata:
        handler_name    : SoundHandler
        vendor_id       : [0][0][0][0]
Stream mapping:
  Stream #0:0 (hevc) -> settb:default
  Stream #1:0 (h264) -> settb:default
  psnr:default -> Stream #0:0 (wrapped_avframe)
  Stream #0:1 -> #0:1 (aac (native) -> pcm_s16le (native))
Output #0, null, to 'pipe:':
  Metadata:
    COMPATIBLE_BRANDS: isomiso2avc1mp41
    MAJOR_BRAND     : isom
    MINOR_VERSION   : 512
    encoder         : Lavf61.7.100
  Stream #0:0: Video: wrapped_avframe, yuv420p10le(tv, bt709, progressive), 1920x1080 [SAR 1:1 DAR 16:9], q=2-31, 200 kb/s, 23.98 fps, 23.98 tbn
      Metadata:
        encoder         : Lavc61.19.100 wrapped_avframe
  Stream #0:1(eng): Audio: pcm_s16le, 48000 Hz, stereo, s16, 1536 kb/s (default)
      Metadata:
        HANDLER_NAME    : SoundHandler
        VENDOR_ID       : [0][0][0][0]
        _STATISTICS_TAGS: BPS DURATION NUMBER_OF_FRAMES NUMBER_OF_BYTES
        BPS             : 193496
        DURATION        : 00:24:02.243000000
        NUMBER_OF_FRAMES: 67606
        NUMBER_OF_BYTES : 34883561
        _STATISTICS_WRITING_APP: mkvpropedit v66.0.0 ('Josie') 64-bit
        _STATISTICS_WRITING_DATE_UTC: 2025-04-30 10:50:45
        encoder         : Lavc61.19.100 pcm_s16le
frame=  113 fps=0.0 q=-0.0 size=N/A time=00:00:04.71 bitrate=N/A speed=9.23x    frame=  269 fps=264 q=-0.0 size=N/A time=00:00:11.21 bitrate=N/A speed=  11x    frame=  458 fps=297 q=-0.0 size=N/A time=00:00:19.10 bitrate=N/A speed=12.4x    frame=  680 fps=332 q=-0.0 size=N/A time=00:00:28.36 bitrate=N/A speed=13.8x    frame=  908 fps=353 q=-0.0 size=N/A time=00:00:37.87 bitrate=N/A speed=14.7x    frame= 1139 fps=369 q=-0.0 size=N/A time=00:00:47.50 bitrate=N/A speed=15.4x    frame= 1366 fps=379 q=-0.0 size=N/A time=00:00:56.97 bitrate=N/A speed=15.8x    frame= 1614 fps=392 q=-0.0 size=N/A time=00:01:07.31 bitrate=N/A speed=16.4x    frame= 1872 fps=404 q=-0.0 size=N/A time=00:01:18.07 bitrate=N/A speed=16.8x    frame= 2089 fps=406 q=-0.0 size=N/A time=00:01:27.12 bitrate=N/A speed=16.9x    frame= 2323 fps=410 q=-0.0 size=N/A time=00:01:36.88 bitrate=N/A speed=17.1x    frame= 2583 fps=418 q=-0.0 size=N/A time=00:01:47.73 bitrate=N/A speed=17.4x    frame= 2822 fps=421 q=-0.0 size=N/A time=00:01:57.70 bitrate=N/A speed=17.6x    frame= 3027 fps=420 q=-0.0 size=N/A time=00:02:06.25 bitrate=N/A speed=17.5x    frame= 3221 fps=417 q=-0.0 size=N/A time=00:02:14.34 bitrate=N/A speed=17.4x    frame= 3426 fps=416 q=-0.0 size=N/A time=00:02:22.89 bitrate=N/A speed=17.4x    frame= 3602 fps=411 q=-0.0 size=N/A time=00:02:30.23 bitrate=N/A speed=17.2x    frame= 3810 fps=411 q=-0.0 size=N/A time=00:02:38.90 bitrate=N/A speed=17.1x    frame= 4062 fps=415 q=-0.0 size=N/A time=00:02:49.41 bitrate=N/A speed=17.3x    frame= 4317 fps=419 q=-0.0 size=N/A time=00:03:00.05 bitrate=N/A speed=17.5x    frame= 4583 fps=423 q=-0.0 size=N/A time=00:03:11.14 bitrate=N/A speed=17.7x    frame= 4848 fps=427 q=-0.0 size=N/A time=00:03:22.20 bitrate=N/A speed=17.8x    frame= 5106 fps=431 q=-0.0 size=N/A time=00:03:32.96 bitrate=N/A speed=  18x    frame= 5370 fps=434 q=-0.0 size=N/A time=00:03:43.97 bitrate=N/A speed=18.1x    frame= 5613 fps=436 q=-0.0 size=N/A time=00:03:54.10 bitrate=N/A speed=18.2x    frame= 5799 fps=433 q=-0.0 size=N/A time=00:04:01.86 bitrate=N/A speed=18.1x    frame= 6029 fps=433 q=-0.0 size=N/A time=00:04:11.45 bitrate=N/A speed=18.1x    frame= 6223 fps=431 q=-0.0 size=N/A time=00:04:19.55 bitrate=N/A speed=  18x    frame= 6440 fps=431 q=-0.0 size=N/A time=00:04:28.60 bitrate=N/A speed=  18x    frame= 6659 fps=431 q=-0.0 size=N/A time=00:04:37.73 bitrate=N/A speed=  18x    frame= 6921 fps=433 q=-0.0 size=N/A time=00:04:48.66 bitrate=N/A speed=18.1x    frame= 7177 fps=435 q=-0.0 size=N/A time=00:04:59.34 bitrate=N/A speed=18.1x    frame= 7394 fps=435 q=-0.0 size=N/A time=00:05:08.43 bitrate=N/A speed=18.1x    frame= 7655 fps=437 q=-0.0 size=N/A time=00:05:19.27 bitrate=N/A speed=18.2x    frame= 7840 fps=435 q=-0.0 size=N/A time=00:05:26.99 bitrate=N/A speed=18.1x    frame= 8090 fps=436 q=-0.0 size=N/A time=00:05:37.42 bitrate=N/A speed=18.2x    frame= 8347 fps=438 q=-0.0 size=N/A time=00:05:48.13 bitrate=N/A speed=18.3x    frame= 8618 fps=440 q=-0.0 size=N/A time=00:05:59.44 bitrate=N/A speed=18.3x    frame= 8871 fps=441 q=-0.0 size=N/A time=00:06:09.99 bitrate=N/A speed=18.4x    frame= 9116 fps=442 q=-0.0 size=N/A time=00:06:20.21 bitrate=N/A speed=18.4x    frame= 9357 fps=443 q=-0.0 size=N/A time=00:06:30.26 bitrate=N/A speed=18.5x    frame= 9614 fps=444 q=-0.0 size=N/A time=00:06:40.98 bitrate=N/A speed=18.5x    frame= 9873 fps=446 q=-0.0 size=N/A time=00:06:51.78 bitrate=N/A speed=18.6x    frame=10141 fps=447 q=-0.0 size=N/A time=00:07:02.96 bitrate=N/A speed=18.6x    frame=10363 fps=447 q=-0.0 size=N/A time=00:07:12.22 bitrate=N/A speed=18.6x    frame=10572 fps=446 q=-0.0 size=N/A time=00:07:20.94 bitrate=N/A speed=18.6x    frame=10825 fps=447 q=-0.0 size=N/A time=00:07:31.49 bitrate=N/A speed=18.6x    frame=11080 fps=448 q=-0.0 size=N/A time=00:07:42.12 bitrate=N/A speed=18.7x    frame=11306 fps=448 q=-0.0 size=N/A time=00:07:51.55 bitrate=N/A speed=18.7x    frame=11570 fps=449 q=-0.0 size=N/A time=00:08:02.56 bitrate=N/A speed=18.7x    frame=11793 fps=448 q=-0.0 size=N/A time=00:08:11.86 bitrate=N/A speed=18.7x    frame=12036 fps=449 q=-0.0 size=N/A time=00:08:22.00 bitrate=N/A speed=18.7x    frame=12308 fps=450 q=-0.0 size=N/A time=00:08:33.34 bitrate=N/A speed=18.8x    frame=12571 fps=452 q=-0.0 size=N/A time=00:08:44.31 bitrate=N/A speed=18.8x    frame=12819 fps=452 q=-0.0 size=N/A time=00:08:54.65 bitrate=N/A speed=18.9x    frame=13088 fps=453 q=-0.0 size=N/A time=00:09:05.87 bitrate=N/A speed=18.9x    frame=13324 fps=454 q=-0.0 size=N/A time=00:09:15.72 bitrate=N/A speed=18.9x    frame=13554 fps=453 q=-0.0 size=N/A time=00:09:25.31 bitrate=N/A speed=18.9x    frame=13745 fps=452 q=-0.0 size=N/A time=00:09:33.28 bitrate=N/A speed=18.9x    frame=13989 fps=452 q=-0.0 size=N/A time=00:09:43.45 bitrate=N/A speed=18.9x    frame=14242 fps=453 q=-0.0 size=N/A time=00:09:54.01 bitrate=N/A speed=18.9x    frame=14486 fps=453 q=-0.0 size=N/A time=00:10:04.18 bitrate=N/A speed=18.9x    frame=14696 fps=452 q=-0.0 size=N/A time=00:10:12.94 bitrate=N/A speed=18.9x    frame=14921 fps=452 q=-0.0 size=N/A time=00:10:22.33 bitrate=N/A speed=18.9x    frame=15189 fps=453 q=-0.0 size=N/A time=00:10:33.50 bitrate=N/A speed=18.9x    frame=15404 fps=453 q=-0.0 size=N/A time=00:10:42.47 bitrate=N/A speed=18.9x    frame=15611 fps=452 q=-0.0 size=N/A time=00:10:51.10 bitrate=N/A speed=18.8x    frame=15790 fps=450 q=-0.0 size=N/A time=00:10:58.57 bitrate=N/A speed=18.8x    frame=15966 fps=449 q=-0.0 size=N/A time=00:11:05.91 bitrate=N/A speed=18.7x    frame=16116 fps=446 q=-0.0 size=N/A time=00:11:12.17 bitrate=N/A speed=18.6x    frame=16283 fps=445 q=-0.0 size=N/A time=00:11:19.13 bitrate=N/A speed=18.5x    frame=16431 fps=443 q=-0.0 size=N/A time=00:11:25.30 bitrate=N/A speed=18.5x    frame=16651 fps=442 q=-0.0 size=N/A time=00:11:34.48 bitrate=N/A speed=18.4x    frame=16858 fps=442 q=-0.0 size=N/A time=00:11:43.11 bitrate=N/A speed=18.4x    frame=17085 fps=442 q=-0.0 size=N/A time=00:11:52.58 bitrate=N/A speed=18.4x    frame=17332 fps=442 q=-0.0 size=N/A time=00:12:02.88 bitrate=N/A speed=18.4x    frame=17593 fps=443 q=-0.0 size=N/A time=00:12:13.77 bitrate=N/A speed=18.5x    frame=17798 fps=442 q=-0.0 size=N/A time=00:12:22.32 bitrate=N/A speed=18.5x    frame=18016 fps=442 q=-0.0 size=N/A time=00:12:31.41 bitrate=N/A speed=18.4x    frame=18251 fps=442 q=-0.0 size=N/A time=00:12:41.21 bitrate=N/A speed=18.4x    frame=18467 fps=442 q=-0.0 size=N/A time=00:12:50.22 bitrate=N/A speed=18.4x    frame=18702 fps=442 q=-0.0 size=N/A time=00:13:00.02 bitrate=N/A speed=18.4x    frame=18932 fps=442 q=-0.0 size=N/A time=00:13:09.62 bitrate=N/A speed=18.4x    frame=19126 fps=442 q=-0.0 size=N/A time=00:13:17.71 bitrate=N/A speed=18.4x    frame=19339 fps=441 q=-0.0 size=N/A time=00:13:26.59 bitrate=N/A speed=18.4x    frame=19535 fps=440 q=-0.0 size=N/A time=00:13:34.77 bitrate=N/A speed=18.4x    frame=19767 fps=441 q=-0.0 size=N/A time=00:13:44.44 bitrate=N/A speed=18.4x    frame=20039 fps=442 q=-0.0 size=N/A time=00:13:55.79 bitrate=N/A speed=18.4x    frame=20309 fps=442 q=-0.0 size=N/A time=00:14:07.05 bitrate=N/A speed=18.5x    frame=20561 fps=443 q=-0.0 size=N/A time=00:14:17.56 bitrate=N/A speed=18.5x    frame=20800 fps=443 q=-0.0 size=N/A time=00:14:27.53 bitrate=N/A speed=18.5x    frame=21006 fps=443 q=-0.0 size=N/A time=00:14:36.12 bitrate=N/A speed=18.5x    frame=21248 fps=443 q=-0.0 size=N/A time=00:14:46.21 bitrate=N/A speed=18.5x    frame=21488 fps=443 q=-0.0 size=N/A time=00:14:56.22 bitrate=N/A speed=18.5x    frame=21747 fps=444 q=-0.0 size=N/A time=00:15:07.03 bitrate=N/A speed=18.5x    frame=21984 fps=444 q=-0.0 size=N/A time=00:15:16.91 bitrate=N/A speed=18.5x    frame=22239 fps=445 q=-0.0 size=N/A time=00:15:27.55 bitrate=N/A speed=18.5x    frame=22515 fps=445 q=-0.0 size=N/A time=00:15:39.06 bitrate=N/A speed=18.6x    frame=22782 fps=446 q=-0.0 size=N/A time=00:15:50.19 bitrate=N/A speed=18.6x    frame=23026 fps=446 q=-0.0 size=N/A time=00:16:00.37 bitrate=N/A speed=18.6x    frame=23288 fps=447 q=-0.0 size=N/A time=00:16:11.30 bitrate=N/A speed=18.6x    frame=23564 fps=448 q=-0.0 size=N/A time=00:16:22.81 bitrate=N/A speed=18.7x    frame=23808 fps=448 q=-0.0 size=N/A time=00:16:32.99 bitrate=N/A speed=18.7x    frame=24069 fps=449 q=-0.0 size=N/A time=00:16:43.87 bitrate=N/A speed=18.7x    frame=24317 fps=449 q=-0.0 size=N/A time=00:16:54.22 bitrate=N/A speed=18.7x    frame=24550 fps=449 q=-0.0 size=N/A time=00:17:03.93 bitrate=N/A speed=18.7x    frame=24758 fps=449 q=-0.0 size=N/A time=00:17:12.61 bitrate=N/A speed=18.7x    frame=25029 fps=449 q=-0.0 size=N/A time=00:17:23.91 bitrate=N/A speed=18.7x    frame=25306 fps=450 q=-0.0 size=N/A time=00:17:35.47 bitrate=N/A speed=18.8x    frame=25555 fps=450 q=-0.0 size=N/A time=00:17:45.85 bitrate=N/A speed=18.8x    frame=25814 fps=451 q=-0.0 size=N/A time=00:17:56.65 bitrate=N/A speed=18.8x    frame=26055 fps=451 q=-0.0 size=N/A time=00:18:06.71 bitrate=N/A speed=18.8x    frame=26305 fps=451 q=-0.0 size=N/A time=00:18:17.13 bitrate=N/A speed=18.8x    frame=26541 fps=451 q=-0.0 size=N/A time=00:18:26.98 bitrate=N/A speed=18.8x    frame=26775 fps=451 q=-0.0 size=N/A time=00:18:36.74 bitrate=N/A speed=18.8x    frame=27036 fps=452 q=-0.0 size=N/A time=00:18:47.62 bitrate=N/A speed=18.8x    frame=27251 fps=452 q=-0.0 size=N/A time=00:18:56.59 bitrate=N/A speed=18.8x    frame=27492 fps=452 q=-0.0 size=N/A time=00:19:06.64 bitrate=N/A speed=18.8x    frame=27730 fps=452 q=-0.0 size=N/A time=00:19:16.57 bitrate=N/A speed=18.8x    frame=27992 fps=452 q=-0.0 size=N/A time=00:19:27.49 bitrate=N/A speed=18.9x    frame=28264 fps=453 q=-0.0 size=N/A time=00:19:38.84 bitrate=N/A speed=18.9x    frame=28482 fps=452 q=-0.0 size=N/A time=00:19:47.93 bitrate=N/A speed=18.9x    frame=28739 fps=453 q=-0.0 size=N/A time=00:19:58.65 bitrate=N/A speed=18.9x    frame=29005 fps=453 q=-0.0 size=N/A time=00:20:09.75 bitrate=N/A speed=18.9x    frame=29244 fps=453 q=-0.0 size=N/A time=00:20:19.71 bitrate=N/A speed=18.9x    frame=29522 fps=454 q=-0.0 size=N/A time=00:20:31.31 bitrate=N/A speed=18.9x    frame=29777 fps=454 q=-0.0 size=N/A time=00:20:41.94 bitrate=N/A speed=  19x    frame=30036 fps=455 q=-0.0 size=N/A time=00:20:52.75 bitrate=N/A speed=  19x    frame=30302 fps=455 q=-0.0 size=N/A time=00:21:03.84 bitrate=N/A speed=  19x    frame=30542 fps=455 q=-0.0 size=N/A time=00:21:13.85 bitrate=N/A speed=  19x    frame=30789 fps=456 q=-0.0 size=N/A time=00:21:24.15 bitrate=N/A speed=  19x    frame=31062 fps=456 q=-0.0 size=N/A time=00:21:35.54 bitrate=N/A speed=  19x    frame=31333 fps=457 q=-0.0 size=N/A time=00:21:46.84 bitrate=N/A speed=  19x    frame=31599 fps=457 q=-0.0 size=N/A time=00:21:57.94 bitrate=N/A speed=19.1x    frame=31828 fps=457 q=-0.0 size=N/A time=00:22:07.49 bitrate=N/A speed=19.1x    frame=32054 fps=457 q=-0.0 size=N/A time=00:22:16.91 bitrate=N/A speed=19.1x    frame=32281 fps=457 q=-0.0 size=N/A time=00:22:26.38 bitrate=N/A speed=  19x    frame=32479 fps=456 q=-0.0 size=N/A time=00:22:34.64 bitrate=N/A speed=  19x    frame=32712 fps=456 q=-0.0 size=N/A time=00:22:44.36 bitrate=N/A speed=  19x    frame=32858 fps=455 q=-0.0 size=N/A time=00:22:50.45 bitrate=N/A speed=  19x    frame=33023 fps=454 q=-0.0 size=N/A time=00:22:57.33 bitrate=N/A speed=18.9x    frame=33257 fps=454 q=-0.0 size=N/A time=00:23:07.09 bitrate=N/A speed=18.9x    frame=33507 fps=454 q=-0.0 size=N/A time=00:23:17.52 bitrate=N/A speed=18.9x    frame=33751 fps=454 q=-0.0 size=N/A time=00:23:27.69 bitrate=N/A speed=18.9x    frame=34010 fps=455 q=-0.0 size=N/A time=00:23:38.50 bitrate=N/A speed=  19x    frame=34272 fps=455 q=-0.0 size=N/A time=00:23:49.42 bitrate=N/A speed=  19x    frame=34553 fps=456 q=-0.0 size=N/A time=00:24:01.14 bitrate=N/A speed=  19x    [Parsed_psnr_10 @ 00000226800cdbc0] PSNR y:48.111535 u:50.545968 v:50.421995 average:48.767962 min:37.687346 max:inf
[out#0/null @ 00000226f911c100] video:14857KiB audio:270424KiB subtitle:0KiB other streams:0KiB global headers:0KiB muxing overhead: unknown
frame=34577 fps=456 q=-0.0 Lsize=N/A time=00:24:02.14 bitrate=N/A speed=  19x    
